<svg xmlns="http://www.w3.org/2000/svg" viewBox="0 0 64 64" fill="none">
  <defs>
    <linearGradient id="spiceRootsGold" x1="0%" y1="0%" x2="100%" y2="100%">
      <stop offset="0%" stop-color="#FDE68A" />
      <stop offset="45%" stop-color="#E5A84B" />
      <stop offset="100%" stop-color="#C88D34" />
    </linearGradient>
    <linearGradient id="spiceRootsBorder" x1="0%" y1="0%" x2="100%" y2="100%">
      <stop offset="0%" stop-color="#F7C676" />
      <stop offset="100%" stop-color="#A56E24" />
    </linearGradient>
    <radialGradient id="bgGlow" cx="50%" cy="50%" r="50%">
      <stop offset="0%" stop-color="#241E18" />
      <stop offset="100%" stop-color="#120F0C" />
    </radialGradient>
  </defs>
  <!-- Background Circle Badge matching Restaurant Logo -->
  <circle cx="32" cy="32" r="30" fill="url(#bgGlow)" stroke="url(#spiceRootsBorder)" stroke-width="2.5" />
  <!-- SpiceRoots Restaurant Logo Emblem -->
  <path fill="url(#spiceRootsGold)" transform="translate(14, 14) scale(1.5)" d="M17.5 3C15.57 3 13.5 4.3 12 5.9C10.5 4.3 8.43 3 6.5 3C3.42 3 1 5.42 1 8.5C1 14.5 12 21 12 21C12 21 23 14.5 23 8.5C23 5.42 20.58 3 17.5 3M12 18.55C9.28 16.03 3 10.97 3 8.5C3 6.57 4.57 5 6.5 5C8.07 5 9.87 6.13 11 7.6H13C14.13 6.13 15.93 5 17.5 5C19.43 5 21 6.57 21 8.5C21 10.97 14.72 16.03 12 18.55Z"/>
</svg>
